<svg xmlns="http://www.w3.org/2000/svg" xmlns:xlink="http://www.w3.org/1999/xlink" contentStyleType="text/css" data-diagram-type="CLASS" height="937px" preserveAspectRatio="none" style="width:1215px;height:937px;background:#FFFFFF;" version="1.1" viewBox="0 0 1215 937" width="1215px" zoomAndPan="magnify"><defs/><g><!--class AS5600--><g id="elem_AS5600"><rect codeLine="5" fill="#F1F1F1" height="451.125" id="AS5600" rx="2.5" ry="2.5" style="stroke:#181818;stroke-width:0.5;" width="259.1328" x="474.05" y="7"/><ellipse cx="572.32" cy="23" fill="#ADD1B2" rx="11" ry="11" style="stroke:#181818;stroke-width:1;"/><path d="M575.2888,28.6406 Q574.7106,28.9375 574.07,29.0781 Q573.4294,29.2344 572.7263,29.2344 Q570.2263,29.2344 568.8981,27.5938 Q567.5856,25.9375 567.5856,22.8125 Q567.5856,19.6875 568.8981,18.0313 Q570.2263,16.375 572.7263,16.375 Q573.4294,16.375 574.07,16.5313 Q574.7263,16.6875 575.2888,16.9844 L575.2888,19.7031 Q574.6638,19.125 574.07,18.8594 Q573.4763,18.5781 572.8513,18.5781 Q571.5075,18.5781 570.82,19.6563 Q570.1325,20.7188 570.1325,22.8125 Q570.1325,24.9063 570.82,25.9844 Q571.5075,27.0469 572.8513,27.0469 Q573.4763,27.0469 574.07,26.7813 Q574.6638,26.5 575.2888,25.9219 L575.2888,28.6406 Z " fill="#000000"/><text fill="#000000" font-family="sans-serif" font-size="14" lengthAdjust="spacing" textLength="54.0928" x="592.82" y="27.8467">AS5600</text><line style="stroke:#181818;stroke-width:0.5;" x1="475.05" x2="732.1828" y1="39" y2="39"/><ellipse cx="485.05" cy="52.6484" fill="#84BE84" rx="3" ry="3" style="stroke:#038048;stroke-width:1;"/><text fill="#000000" font-family="sans-serif" font-size="14" lengthAdjust="spacing" textLength="222.4688" x="494.05" y="55.9951">AS5600 (i2c : I2C, address : int)</text><line style="stroke:#181818;stroke-width:1;stroke-dasharray:1.0,2.0;" x1="475.05" x2="732.1828" y1="63.2969" y2="63.2969"/><ellipse cx="485.05" cy="76.9453" fill="#FFFFFF" fill-opacity="0.00000" rx="3" ry="3" style="stroke:#038048;stroke-width:1;"/><text fill="#000000" font-family="sans-serif" font-size="14" lengthAdjust="spacing" textLength="70.7109" x="494.05" y="80.292">angle : int</text><ellipse cx="485.05" cy="93.2422" fill="#FFFFFF" fill-opacity="0.00000" rx="3" ry="3" style="stroke:#038048;stroke-width:1;"/><text fill="#000000" font-family="sans-serif" font-size="14" lengthAdjust="spacing" textLength="103.4961" x="494.05" y="96.5889">raw_angle : int</text><ellipse cx="485.05" cy="129.8359" fill="#FFFFFF" fill-opacity="0.00000" rx="3" ry="3" style="stroke:#038048;stroke-width:1;"/><text fill="#000000" font-family="sans-serif" font-size="14" lengthAdjust="spacing" textLength="124.6055" x="494.05" y="133.1826">zero_position : int</text><ellipse cx="485.05" cy="146.1328" fill="#FFFFFF" fill-opacity="0.00000" rx="3" ry="3" style="stroke:#038048;stroke-width:1;"/><text fill="#000000" font-family="sans-serif" font-size="14" lengthAdjust="spacing" textLength="124.8242" x="494.05" y="149.4795">max_position : int</text><ellipse cx="485.05" cy="162.4297" fill="#FFFFFF" fill-opacity="0.00000" rx="3" ry="3" style="stroke:#038048;stroke-width:1;"/><text fill="#000000" font-family="sans-serif" font-size="14" lengthAdjust="spacing" textLength="108.2129" x="494.05" y="165.7764">max_angle : int</text><ellipse cx="485.05" cy="178.7266" fill="#FFFFFF" fill-opacity="0.00000" rx="3" ry="3" style="stroke:#038048;stroke-width:1;"/><text fill="#000000" font-family="sans-serif" font-size="14" lengthAdjust="spacing" textLength="184.5635" x="494.05" y="182.0732">power_mode : PowerMode</text><ellipse cx="485.05" cy="195.0234" fill="#FFFFFF" fill-opacity="0.00000" rx="3" ry="3" style="stroke:#038048;stroke-width:1;"/><text fill="#000000" font-family="sans-serif" font-size="14" lengthAdjust="spacing" textLength="158.0742" x="494.05" y="198.3701">hysteresis : Hysteresis</text><ellipse cx="485.05" cy="211.3203" fill="#FFFFFF" fill-opacity="0.00000" rx="3" ry="3" style="stroke:#038048;stroke-width:1;"/><text fill="#000000" font-family="sans-serif" font-size="14" lengthAdjust="spacing" textLength="194.7422" x="494.05" y="214.667">output_stage : OutputStage</text><ellipse cx="485.05" cy="227.6172" fill="#FFFFFF" fill-opacity="0.00000" rx="3" ry="3" style="stroke:#038048;stroke-width:1;"/><text fill="#000000" font-family="sans-serif" font-size="14" lengthAdjust="spacing" textLength="233.1328" x="494.05" y="230.9639">pwm_frequency : PWMFrequency</text><ellipse cx="485.05" cy="243.9141" fill="#FFFFFF" fill-opacity="0.00000" rx="3" ry="3" style="stroke:#038048;stroke-width:1;"/><text fill="#000000" font-family="sans-serif" font-size="14" lengthAdjust="spacing" textLength="152.8652" x="494.05" y="247.2607">slow_filter : SlowFilter</text><ellipse cx="485.05" cy="260.2109" fill="#FFFFFF" fill-opacity="0.00000" rx="3" ry="3" style="stroke:#038048;stroke-width:1;"/><text fill="#000000" font-family="sans-serif" font-size="14" lengthAdjust="spacing" textLength="213.8828" x="494.05" y="263.5576">fast_filter : FastFilterThreshold</text><ellipse cx="485.05" cy="276.5078" fill="#FFFFFF" fill-opacity="0.00000" rx="3" ry="3" style="stroke:#038048;stroke-width:1;"/><text fill="#000000" font-family="sans-serif" font-size="14" lengthAdjust="spacing" textLength="118.9521" x="494.05" y="279.8545">watch_dog : bool</text><line style="stroke:#181818;stroke-width:1;stroke-dasharray:1.0,2.0;" x1="475.05" x2="582.196" y1="112.0391" y2="112.0391"/><text fill="#000000" font-family="sans-serif" font-size="14" lengthAdjust="spacing" textLength="42.8408" x="582.196" y="116.3857">config</text><line style="stroke:#181818;stroke-width:1;stroke-dasharray:1.0,2.0;" x1="625.0368" x2="732.1828" y1="112.0391" y2="112.0391"/><ellipse cx="485.05" cy="313.1016" fill="#FFFFFF" fill-opacity="0.00000" rx="3" ry="3" style="stroke:#038048;stroke-width:1;"/><text fill="#000000" font-family="sans-serif" font-size="14" lengthAdjust="spacing" textLength="197.2715" x="494.05" y="316.4482">is_magnet_too_strong : bool</text><ellipse cx="485.05" cy="329.3984" fill="#FFFFFF" fill-opacity="0.00000" rx="3" ry="3" style="stroke:#038048;stroke-width:1;"/><text fill="#000000" font-family="sans-serif" font-size="14" lengthAdjust="spacing" textLength="189.1572" x="494.05" y="332.7451">is_magnet_too_weak : bool</text><ellipse cx="485.05" cy="345.6953" fill="#FFFFFF" fill-opacity="0.00000" rx="3" ry="3" style="stroke:#038048;stroke-width:1;"/><text fill="#000000" font-family="sans-serif" font-size="14" lengthAdjust="spacing" textLength="185.0762" x="494.05" y="349.042">is_magnet_detected : bool</text><ellipse cx="485.05" cy="361.9922" fill="#FFFFFF" fill-opacity="0.00000" rx="3" ry="3" style="stroke:#038048;stroke-width:1;"/><text fill="#000000" font-family="sans-serif" font-size="14" lengthAdjust="spacing" textLength="62.0977" x="494.05" y="365.3389">gain : int</text><ellipse cx="485.05" cy="378.2891" fill="#FFFFFF" fill-opacity="0.00000" rx="3" ry="3" style="stroke:#038048;stroke-width:1;"/><text fill="#000000" font-family="sans-serif" font-size="14" lengthAdjust="spacing" textLength="107.5977" x="494.05" y="381.6357">magnitude : int</text><ellipse cx="485.05" cy="394.5859" fill="#FFFFFF" fill-opacity="0.00000" rx="3" ry="3" style="stroke:#038048;stroke-width:1;"/><text fill="#000000" font-family="sans-serif" font-size="14" lengthAdjust="spacing" textLength="69.1182" x="494.05" y="397.9326">zmco : int</text><line style="stroke:#181818;stroke-width:1;stroke-dasharray:1.0,2.0;" x1="475.05" x2="582.1071" y1="295.3047" y2="295.3047"/><text fill="#000000" font-family="sans-serif" font-size="14" lengthAdjust="spacing" textLength="43.0186" x="582.1071" y="299.6514">status</text><line style="stroke:#181818;stroke-width:1;stroke-dasharray:1.0,2.0;" x1="625.1257" x2="732.1828" y1="295.3047" y2="295.3047"/><ellipse cx="485.05" cy="431.1797" fill="#84BE84" rx="3" ry="3" style="stroke:#038048;stroke-width:1;"/><text fill="#000000" font-family="sans-serif" font-size="14" lengthAdjust="spacing" textLength="152.1611" x="494.05" y="434.5264">burn_in_angle() : void</text><ellipse cx="485.05" cy="447.4766" fill="#84BE84" rx="3" ry="3" style="stroke:#038048;stroke-width:1;"/><text fill="#000000" font-family="sans-serif" font-size="14" lengthAdjust="spacing" textLength="169.1484" x="494.05" y="450.8232">burn_in_settings() : void</text><line style="stroke:#181818;stroke-width:1;stroke-dasharray:1.0,2.0;" x1="475.05" x2="515.0534" y1="413.3828" y2="413.3828"/><text fill="#000000" font-family="sans-serif" font-size="14" lengthAdjust="spacing" textLength="177.126" x="515.0534" y="417.7295">permanent programming</text><line style="stroke:#181818;stroke-width:1;stroke-dasharray:1.0,2.0;" x1="692.1794" x2="732.1828" y1="413.3828" y2="413.3828"/></g><!--class PowerMode--><g id="elem_PowerMode"><rect codeLine="33" fill="#F1F1F1" height="113.1875" id="PowerMode" rx="2.5" ry="2.5" style="stroke:#181818;stroke-width:0.5;" width="219.2383" x="7" y="518.13"/><ellipse cx="71.8833" cy="534.13" fill="#EB937F" rx="11" ry="11" style="stroke:#181818;stroke-width:1;"/><path d="M75.9927,540.13 L68.2739,540.13 L68.2739,527.7394 L75.9927,527.7394 L75.9927,529.8956 L70.7271,529.8956 L70.7271,532.5675 L75.4927,532.5675 L75.4927,534.7238 L70.7271,534.7238 L70.7271,537.9738 L75.9927,537.9738 L75.9927,540.13 Z " fill="#000000"/><text fill="#000000" font-family="sans-serif" font-size="14" lengthAdjust="spacing" textLength="80.9717" x="92.3833" y="538.9767">PowerMode</text><line style="stroke:#181818;stroke-width:0.5;" x1="8" x2="225.2383" y1="550.13" y2="550.13"/><text fill="#000000" font-family="sans-serif" font-size="14" lengthAdjust="spacing" textLength="203.5811" x="13" y="567.1251">POWER_MODE_NOM : int = 0</text><text fill="#000000" font-family="sans-serif" font-size="14" lengthAdjust="spacing" textLength="207.2383" x="13" y="583.422">POWER_MODE_LPM1 : int = 1</text><text fill="#000000" font-family="sans-serif" font-size="14" lengthAdjust="spacing" textLength="207.2383" x="13" y="599.7189">POWER_MODE_LPM2 : int = 2</text><text fill="#000000" font-family="sans-serif" font-size="14" lengthAdjust="spacing" textLength="207.2383" x="13" y="616.0157">POWER_MODE_LPM3 : int = 3</text><line style="stroke:#181818;stroke-width:0.5;" x1="8" x2="225.2383" y1="623.3175" y2="623.3175"/></g><!--class Hysteresis--><g id="elem_Hysteresis"><rect codeLine="40" fill="#F1F1F1" height="113.1875" id="Hysteresis" rx="2.5" ry="2.5" style="stroke:#181818;stroke-width:0.5;" width="201.4443" x="97.9" y="784.91"/><ellipse cx="157.8443" cy="800.91" fill="#EB937F" rx="11" ry="11" style="stroke:#181818;stroke-width:1;"/><path d="M161.9537,806.91 L154.235,806.91 L154.235,794.5194 L161.9537,794.5194 L161.9537,796.6756 L156.6881,796.6756 L156.6881,799.3475 L161.4537,799.3475 L161.4537,801.5038 L156.6881,801.5038 L156.6881,804.7538 L161.9537,804.7538 L161.9537,806.91 Z " fill="#000000"/><text fill="#000000" font-family="sans-serif" font-size="14" lengthAdjust="spacing" textLength="73.0557" x="178.3443" y="805.7567">Hysteresis</text><line style="stroke:#181818;stroke-width:0.5;" x1="98.9" x2="298.3443" y1="816.91" y2="816.91"/><text fill="#000000" font-family="sans-serif" font-size="14" lengthAdjust="spacing" textLength="181.3711" x="103.9" y="833.9051">HYSTERESIS_OFF : int = 0</text><text fill="#000000" font-family="sans-serif" font-size="14" lengthAdjust="spacing" textLength="189.4443" x="103.9" y="850.202">HYSTERESIS_1LSB : int = 1</text><text fill="#000000" font-family="sans-serif" font-size="14" lengthAdjust="spacing" textLength="189.4443" x="103.9" y="866.4989">HYSTERESIS_2LSB : int = 2</text><text fill="#000000" font-family="sans-serif" font-size="14" lengthAdjust="spacing" textLength="189.4443" x="103.9" y="882.7957">HYSTERESIS_3LSB : int = 3</text><line style="stroke:#181818;stroke-width:0.5;" x1="98.9" x2="298.3443" y1="890.0975" y2="890.0975"/></g><!--class OutputStage--><g id="elem_OutputStage"><rect codeLine="47" fill="#F1F1F1" height="96.8906" id="OutputStage" rx="2.5" ry="2.5" style="stroke:#181818;stroke-width:0.5;" width="326.4736" x="332.38" y="526.28"/><ellipse cx="446.8238" cy="542.28" fill="#EB937F" rx="11" ry="11" style="stroke:#181818;stroke-width:1;"/><path d="M450.9332,548.28 L443.2145,548.28 L443.2145,535.8894 L450.9332,535.8894 L450.9332,538.0456 L445.6676,538.0456 L445.6676,540.7175 L450.4332,540.7175 L450.4332,542.8738 L445.6676,542.8738 L445.6676,546.1238 L450.9332,546.1238 L450.9332,548.28 Z " fill="#000000"/><text fill="#000000" font-family="sans-serif" font-size="14" lengthAdjust="spacing" textLength="89.0859" x="467.3238" y="547.1267">OutputStage</text><line style="stroke:#181818;stroke-width:0.5;" x1="333.38" x2="657.8536" y1="558.28" y2="558.28"/><text fill="#000000" font-family="sans-serif" font-size="14" lengthAdjust="spacing" textLength="279.3711" x="338.38" y="575.2751">OUTPUT_STAGE_ANALOG_FULL : int = 0</text><text fill="#000000" font-family="sans-serif" font-size="14" lengthAdjust="spacing" textLength="314.4736" x="338.38" y="591.572">OUTPUT_STAGE_ANALOG_REDUCED : int = 1</text><text fill="#000000" font-family="sans-serif" font-size="14" lengthAdjust="spacing" textLength="276.3564" x="338.38" y="607.8689">OUTPUT_STAGE_DIGITAL_PWM : int = 2</text><line style="stroke:#181818;stroke-width:0.5;" x1="333.38" x2="657.8536" y1="615.1706" y2="615.1706"/></g><!--class PWMFrequency--><g id="elem_PWMFrequency"><rect codeLine="53" fill="#F1F1F1" height="113.1875" id="PWMFrequency" rx="2.5" ry="2.5" style="stroke:#181818;stroke-width:0.5;" width="254.1494" x="764.54" y="518.13"/><ellipse cx="833.3574" cy="534.13" fill="#EB937F" rx="11" ry="11" style="stroke:#181818;stroke-width:1;"/><path d="M837.4668,540.13 L829.748,540.13 L829.748,527.7394 L837.4668,527.7394 L837.4668,529.8956 L832.2011,529.8956 L832.2011,532.5675 L836.9668,532.5675 L836.9668,534.7238 L832.2011,534.7238 L832.2011,537.9738 L837.4668,537.9738 L837.4668,540.13 Z " fill="#000000"/><text fill="#000000" font-family="sans-serif" font-size="14" lengthAdjust="spacing" textLength="108.0146" x="853.8574" y="538.9767">PWMFrequency</text><line style="stroke:#181818;stroke-width:0.5;" x1="765.54" x2="1017.6894" y1="550.13" y2="550.13"/><text fill="#000000" font-family="sans-serif" font-size="14" lengthAdjust="spacing" textLength="242.1494" x="770.54" y="567.1251">PWM_FREQUENCY_115HZ : int = 0</text><text fill="#000000" font-family="sans-serif" font-size="14" lengthAdjust="spacing" textLength="242.1494" x="770.54" y="583.422">PWM_FREQUENCY_230HZ : int = 1</text><text fill="#000000" font-family="sans-serif" font-size="14" lengthAdjust="spacing" textLength="242.1494" x="770.54" y="599.7189">PWM_FREQUENCY_460HZ : int = 2</text><text fill="#000000" font-family="sans-serif" font-size="14" lengthAdjust="spacing" textLength="242.1494" x="770.54" y="616.0157">PWM_FREQUENCY_920HZ : int = 3</text><line style="stroke:#181818;stroke-width:0.5;" x1="765.54" x2="1017.6894" y1="623.3175" y2="623.3175"/></g><!--class SlowFilter--><g id="elem_SlowFilter"><rect codeLine="60" fill="#F1F1F1" height="113.1875" id="SlowFilter" rx="2.5" ry="2.5" style="stroke:#181818;stroke-width:0.5;" width="203.4678" x="627.89" y="784.91"/><ellipse cx="691.1327" cy="800.91" fill="#EB937F" rx="11" ry="11" style="stroke:#181818;stroke-width:1;"/><path d="M695.2421,806.91 L687.5233,806.91 L687.5233,794.5194 L695.2421,794.5194 L695.2421,796.6756 L689.9764,796.6756 L689.9764,799.3475 L694.7421,799.3475 L694.7421,801.5038 L689.9764,801.5038 L689.9764,804.7538 L695.2421,804.7538 L695.2421,806.91 Z " fill="#000000"/><text fill="#000000" font-family="sans-serif" font-size="14" lengthAdjust="spacing" textLength="68.4824" x="711.6327" y="805.7567">SlowFilter</text><line style="stroke:#181818;stroke-width:0.5;" x1="628.89" x2="830.3578" y1="816.91" y2="816.91"/><text fill="#000000" font-family="sans-serif" font-size="14" lengthAdjust="spacing" textLength="191.4678" x="633.89" y="833.9051">SLOW_FILTER_16X : int = 0</text><text fill="#000000" font-family="sans-serif" font-size="14" lengthAdjust="spacing" textLength="182.5605" x="633.89" y="850.202">SLOW_FILTER_8X : int = 1</text><text fill="#000000" font-family="sans-serif" font-size="14" lengthAdjust="spacing" textLength="182.5605" x="633.89" y="866.4989">SLOW_FILTER_4X : int = 2</text><text fill="#000000" font-family="sans-serif" font-size="14" lengthAdjust="spacing" textLength="182.5605" x="633.89" y="882.7957">SLOW_FILTER_2X : int = 3</text><line style="stroke:#181818;stroke-width:0.5;" x1="628.89" x2="830.3578" y1="890.0975" y2="890.0975"/></g><!--class FastFilterThreshold--><g id="elem_FastFilterThreshold"><rect codeLine="67" fill="#F1F1F1" height="178.375" id="FastFilterThreshold" rx="2.5" ry="2.5" style="stroke:#181818;stroke-width:0.5;" width="307.3535" x="900.94" y="752.31"/><ellipse cx="983.1627" cy="768.31" fill="#EB937F" rx="11" ry="11" style="stroke:#181818;stroke-width:1;"/><path d="M987.272,774.31 L979.5533,774.31 L979.5533,761.9194 L987.272,761.9194 L987.272,764.0756 L982.0064,764.0756 L982.0064,766.7475 L986.772,766.7475 L986.772,768.9038 L982.0064,768.9038 L982.0064,772.1538 L987.272,772.1538 L987.272,774.31 Z " fill="#000000"/><text fill="#000000" font-family="sans-serif" font-size="14" lengthAdjust="spacing" textLength="134.4082" x="1003.6627" y="773.1567">FastFilterThreshold</text><line style="stroke:#181818;stroke-width:0.5;" x1="901.94" x2="1207.2935" y1="784.31" y2="784.31"/><text fill="#000000" font-family="sans-serif" font-size="14" lengthAdjust="spacing" textLength="292.7969" x="906.94" y="801.3051">FAST_FILTER_THRESHOLD_SLOW : int = 0</text><text fill="#000000" font-family="sans-serif" font-size="14" lengthAdjust="spacing" textLength="286.4463" x="906.94" y="817.602">FAST_FILTER_THRESHOLD_6LSB : int = 1</text><text fill="#000000" font-family="sans-serif" font-size="14" lengthAdjust="spacing" textLength="286.4463" x="906.94" y="833.8989">FAST_FILTER_THRESHOLD_7LSB : int = 2</text><text fill="#000000" font-family="sans-serif" font-size="14" lengthAdjust="spacing" textLength="286.4463" x="906.94" y="850.1957">FAST_FILTER_THRESHOLD_9LSB : int = 3</text><text fill="#000000" font-family="sans-serif" font-size="14" lengthAdjust="spacing" textLength="295.3535" x="906.94" y="866.4926">FAST_FILTER_THRESHOLD_18LSB : int = 4</text><text fill="#000000" font-family="sans-serif" font-size="14" lengthAdjust="spacing" textLength="295.3535" x="906.94" y="882.7895">FAST_FILTER_THRESHOLD_21LSB : int = 5</text><text fill="#000000" font-family="sans-serif" font-size="14" lengthAdjust="spacing" textLength="295.3535" x="906.94" y="899.0864">FAST_FILTER_THRESHOLD_24LSB : int = 6</text><text fill="#000000" font-family="sans-serif" font-size="14" lengthAdjust="spacing" textLength="295.3535" x="906.94" y="915.3832">FAST_FILTER_THRESHOLD_10LSB : int = 7</text><line style="stroke:#181818;stroke-width:0.5;" x1="901.94" x2="1207.2935" y1="922.685" y2="922.685"/></g><!--link PWMFrequency to SlowFilter--><!--link PWMFrequency to FastFilterThreshold--><!--link PowerMode to Hysteresis--><!--link AS5600 to PowerMode--><g id="link_AS5600_PowerMode"><path codeLine="83" d="M473.75,324.27 C385.7,385.78 272.09,465.13 196.92,517.63 " fill="#FFFFFF" fill-opacity="0.00000" id="AS5600-PowerMode" style="stroke:#181818;stroke-width:1;"/></g><!--link AS5600 to Hysteresis--><g id="link_AS5600_Hysteresis"><path codeLine="84" d="M473.62,338.34 C418.57,388.09 357.41,451.26 314.62,518.13 C260.12,603.3 226.85,717.51 210.64,784.64 " fill="#FFFFFF" fill-opacity="0.00000" id="AS5600-Hysteresis" style="stroke:#181818;stroke-width:1;"/></g><!--link AS5600 to OutputStage--><g id="link_AS5600_OutputStage"><path codeLine="85" d="M532.18,458.56 C524.22,483.64 516.82,506.94 510.8,525.92 " fill="#FFFFFF" fill-opacity="0.00000" id="AS5600-OutputStage" style="stroke:#181818;stroke-width:1;"/></g><!--link AS5600 to PWMFrequency--><g id="link_AS5600_PWMFrequency"><path codeLine="86" d="M733.3,386.73 C772.86,433.46 813.88,481.91 844.25,517.78 " fill="#FFFFFF" fill-opacity="0.00000" id="AS5600-PWMFrequency" style="stroke:#181818;stroke-width:1;"/></g><!--link AS5600 to SlowFilter--><g id="link_AS5600_SlowFilter"><path codeLine="87" d="M663.24,458.37 C667.99,478.52 672.53,498.66 676.62,518.13 C696.12,610.96 712.76,720.1 721.96,784.6 " fill="#FFFFFF" fill-opacity="0.00000" id="AS5600-SlowFilter" style="stroke:#181818;stroke-width:1;"/></g><!--link AS5600 to FastFilterThreshold--><g id="link_AS5600_FastFilterThreshold"><path codeLine="88" d="M733.54,280.84 C835.15,325.29 970,402.47 1036.62,518.13 C1077.4,588.92 1077.58,683.6 1070.17,752.02 " fill="#FFFFFF" fill-opacity="0.00000" id="AS5600-FastFilterThreshold" style="stroke:#181818;stroke-width:1;"/></g><!--SRC=[XPPTRzem58RlyojyrrORY8IFjaYRn20fI84m4WJTD5bfOeArn6Q96QLL__jCGn9ZNCOLn-_ZuzVnEN6kW3iTB6iMZb6VRlOfZjRCGy-i2yeGN0Stm6WORJ2XA0Oz4g8qeqIxogVQE40aGxLHY0Z3AupIBXYFF4tJWjZFCj1psvr60xngWFy-5U4rDWBG1IEZ_nduOPWYJdO19kpcdQlNZ_WhJnY7Ry0dKOnoGb9IVmTbjLu70IKh79qdUa4fXHkQOOOfoQS02KdyPubG0CAIylmDtQ4K9ZGywDD3CER_9MYzpnZYsyQ7VG_BGABebcss36RCZmx9dFVGVO_aHNS9NANepnQHO7zOTp6sYb12ivZku0h7V4aEkZooya3YLdx6AixYKSvvQsvrJUDGudS-2zOmf16ddoYD2w4u4huBjitEZmHdCF4ZWXXabFAzffGKAIwIE-J__XyN8eO2Xa8r5_cug07HgtZI4S5i6wfBxoK9g68wt-e6fObFU4E0JKgZr4yIJCHYJ11RKvxXQPiIY4bUJTStFDbVYiEFg0mnnlDa5VYcQOXiawhAZdqsTHRc38wTWGadplZeyGjeoA8z7UkbgYjKerGDXTeirMPffQhbevVXe-kPCzCTkT2nBCcB8Egs-qto8gY6g1gosXJLoelOBxaPP-vDvnvqlTw32NkJdkqyG6jksv8j5JOp1_E-EP0idf23qSF8wzcGDv_WjJmaeIMBSrgCeJKply_DIVyHwdfx-4C-h1F2Q3O4GbSGhOv860hYtX29wc49BuBSd6ix2sYDRFwGeTvPIiP4zMufUHB5rbAo8uh6Kk54yQevMh9whbTCzORyx8UEFO27X98xDTWvBp4rU7jURMhm_hJmFWRrEv5iNI2DaqPeNo9R8jcvj7f396yFJ_fgHTC0WTZVyqj64skpzdEDGtwR_whLlWfLyJ6ZkXhADz89ALnqsl5Be5OJxiXgJ22hGQ6VnUdYLLSD2ywhGONLVm00]--></g></svg>
