<svg xmlns="http://www.w3.org/2000/svg" xmlns:xlink="http://www.w3.org/1999/xlink" contentStyleType="text/css" data-diagram-type="CLASS" height="703px" preserveAspectRatio="none" style="width:1700px;height:703px;background:#FFFFFF;" version="1.1" viewBox="0 0 1700 703" width="1700px" zoomAndPan="magnify"><defs/><g><!--class AS5600--><g id="elem_AS5600"><rect codeLine="1" fill="#F1F1F1" height="451.125" id="AS5600" rx="2.5" ry="2.5" style="stroke:#181818;stroke-width:0.5;" width="259.1328" x="693.05" y="7"/><ellipse cx="791.32" cy="23" fill="#ADD1B2" rx="11" ry="11" style="stroke:#181818;stroke-width:1;"/><path d="M794.2888,28.6406 Q793.7106,28.9375 793.07,29.0781 Q792.4294,29.2344 791.7263,29.2344 Q789.2263,29.2344 787.8981,27.5938 Q786.5856,25.9375 786.5856,22.8125 Q786.5856,19.6875 787.8981,18.0313 Q789.2263,16.375 791.7263,16.375 Q792.4294,16.375 793.07,16.5313 Q793.7263,16.6875 794.2888,16.9844 L794.2888,19.7031 Q793.6638,19.125 793.07,18.8594 Q792.4763,18.5781 791.8513,18.5781 Q790.5075,18.5781 789.82,19.6563 Q789.1325,20.7188 789.1325,22.8125 Q789.1325,24.9063 789.82,25.9844 Q790.5075,27.0469 791.8513,27.0469 Q792.4763,27.0469 793.07,26.7813 Q793.6638,26.5 794.2888,25.9219 L794.2888,28.6406 Z " fill="#000000"/><text fill="#000000" font-family="sans-serif" font-size="14" lengthAdjust="spacing" textLength="54.0928" x="811.82" y="27.8467">AS5600</text><line style="stroke:#181818;stroke-width:0.5;" x1="694.05" x2="951.1828" y1="39" y2="39"/><ellipse cx="704.05" cy="52.6484" fill="#84BE84" rx="3" ry="3" style="stroke:#038048;stroke-width:1;"/><text fill="#000000" font-family="sans-serif" font-size="14" lengthAdjust="spacing" textLength="222.4688" x="713.05" y="55.9951">AS5600 (i2c : I2C, address : int)</text><line style="stroke:#181818;stroke-width:1;stroke-dasharray:1.0,2.0;" x1="694.05" x2="951.1828" y1="63.2969" y2="63.2969"/><ellipse cx="704.05" cy="76.9453" fill="#FFFFFF" fill-opacity="0.00000" rx="3" ry="3" style="stroke:#038048;stroke-width:1;"/><text fill="#000000" font-family="sans-serif" font-size="14" lengthAdjust="spacing" textLength="70.7109" x="713.05" y="80.292">angle : int</text><ellipse cx="704.05" cy="93.2422" fill="#FFFFFF" fill-opacity="0.00000" rx="3" ry="3" style="stroke:#038048;stroke-width:1;"/><text fill="#000000" font-family="sans-serif" font-size="14" lengthAdjust="spacing" textLength="103.4961" x="713.05" y="96.5889">raw_angle : int</text><ellipse cx="704.05" cy="129.8359" fill="#FFFFFF" fill-opacity="0.00000" rx="3" ry="3" style="stroke:#038048;stroke-width:1;"/><text fill="#000000" font-family="sans-serif" font-size="14" lengthAdjust="spacing" textLength="124.6055" x="713.05" y="133.1826">zero_position : int</text><ellipse cx="704.05" cy="146.1328" fill="#FFFFFF" fill-opacity="0.00000" rx="3" ry="3" style="stroke:#038048;stroke-width:1;"/><text fill="#000000" font-family="sans-serif" font-size="14" lengthAdjust="spacing" textLength="124.8242" x="713.05" y="149.4795">max_position : int</text><ellipse cx="704.05" cy="162.4297" fill="#FFFFFF" fill-opacity="0.00000" rx="3" ry="3" style="stroke:#038048;stroke-width:1;"/><text fill="#000000" font-family="sans-serif" font-size="14" lengthAdjust="spacing" textLength="108.2129" x="713.05" y="165.7764">max_angle : int</text><ellipse cx="704.05" cy="178.7266" fill="#FFFFFF" fill-opacity="0.00000" rx="3" ry="3" style="stroke:#038048;stroke-width:1;"/><text fill="#000000" font-family="sans-serif" font-size="14" lengthAdjust="spacing" textLength="184.5635" x="713.05" y="182.0732">power_mode : PowerMode</text><ellipse cx="704.05" cy="195.0234" fill="#FFFFFF" fill-opacity="0.00000" rx="3" ry="3" style="stroke:#038048;stroke-width:1;"/><text fill="#000000" font-family="sans-serif" font-size="14" lengthAdjust="spacing" textLength="158.0742" x="713.05" y="198.3701">hysteresis : Hysteresis</text><ellipse cx="704.05" cy="211.3203" fill="#FFFFFF" fill-opacity="0.00000" rx="3" ry="3" style="stroke:#038048;stroke-width:1;"/><text fill="#000000" font-family="sans-serif" font-size="14" lengthAdjust="spacing" textLength="194.7422" x="713.05" y="214.667">output_stage : OutputStage</text><ellipse cx="704.05" cy="227.6172" fill="#FFFFFF" fill-opacity="0.00000" rx="3" ry="3" style="stroke:#038048;stroke-width:1;"/><text fill="#000000" font-family="sans-serif" font-size="14" lengthAdjust="spacing" textLength="233.1328" x="713.05" y="230.9639">pwm_frequency : PWMFrequency</text><ellipse cx="704.05" cy="243.9141" fill="#FFFFFF" fill-opacity="0.00000" rx="3" ry="3" style="stroke:#038048;stroke-width:1;"/><text fill="#000000" font-family="sans-serif" font-size="14" lengthAdjust="spacing" textLength="152.8652" x="713.05" y="247.2607">slow_filter : SlowFilter</text><ellipse cx="704.05" cy="260.2109" fill="#FFFFFF" fill-opacity="0.00000" rx="3" ry="3" style="stroke:#038048;stroke-width:1;"/><text fill="#000000" font-family="sans-serif" font-size="14" lengthAdjust="spacing" textLength="213.8828" x="713.05" y="263.5576">fast_filter : FastFilterThreshold</text><ellipse cx="704.05" cy="276.5078" fill="#FFFFFF" fill-opacity="0.00000" rx="3" ry="3" style="stroke:#038048;stroke-width:1;"/><text fill="#000000" font-family="sans-serif" font-size="14" lengthAdjust="spacing" textLength="118.9521" x="713.05" y="279.8545">watch_dog : bool</text><line style="stroke:#181818;stroke-width:1;stroke-dasharray:1.0,2.0;" x1="694.05" x2="801.196" y1="112.0391" y2="112.0391"/><text fill="#000000" font-family="sans-serif" font-size="14" lengthAdjust="spacing" textLength="42.8408" x="801.196" y="116.3857">config</text><line style="stroke:#181818;stroke-width:1;stroke-dasharray:1.0,2.0;" x1="844.0368" x2="951.1828" y1="112.0391" y2="112.0391"/><ellipse cx="704.05" cy="313.1016" fill="#FFFFFF" fill-opacity="0.00000" rx="3" ry="3" style="stroke:#038048;stroke-width:1;"/><text fill="#000000" font-family="sans-serif" font-size="14" lengthAdjust="spacing" textLength="197.2715" x="713.05" y="316.4482">is_magnet_too_strong : bool</text><ellipse cx="704.05" cy="329.3984" fill="#FFFFFF" fill-opacity="0.00000" rx="3" ry="3" style="stroke:#038048;stroke-width:1;"/><text fill="#000000" font-family="sans-serif" font-size="14" lengthAdjust="spacing" textLength="189.1572" x="713.05" y="332.7451">is_magnet_too_weak : bool</text><ellipse cx="704.05" cy="345.6953" fill="#FFFFFF" fill-opacity="0.00000" rx="3" ry="3" style="stroke:#038048;stroke-width:1;"/><text fill="#000000" font-family="sans-serif" font-size="14" lengthAdjust="spacing" textLength="185.0762" x="713.05" y="349.042">is_magnet_detected : bool</text><ellipse cx="704.05" cy="361.9922" fill="#FFFFFF" fill-opacity="0.00000" rx="3" ry="3" style="stroke:#038048;stroke-width:1;"/><text fill="#000000" font-family="sans-serif" font-size="14" lengthAdjust="spacing" textLength="62.0977" x="713.05" y="365.3389">gain : int</text><ellipse cx="704.05" cy="378.2891" fill="#FFFFFF" fill-opacity="0.00000" rx="3" ry="3" style="stroke:#038048;stroke-width:1;"/><text fill="#000000" font-family="sans-serif" font-size="14" lengthAdjust="spacing" textLength="107.5977" x="713.05" y="381.6357">magnitude : int</text><ellipse cx="704.05" cy="394.5859" fill="#FFFFFF" fill-opacity="0.00000" rx="3" ry="3" style="stroke:#038048;stroke-width:1;"/><text fill="#000000" font-family="sans-serif" font-size="14" lengthAdjust="spacing" textLength="69.1182" x="713.05" y="397.9326">zmco : int</text><line style="stroke:#181818;stroke-width:1;stroke-dasharray:1.0,2.0;" x1="694.05" x2="801.1071" y1="295.3047" y2="295.3047"/><text fill="#000000" font-family="sans-serif" font-size="14" lengthAdjust="spacing" textLength="43.0186" x="801.1071" y="299.6514">status</text><line style="stroke:#181818;stroke-width:1;stroke-dasharray:1.0,2.0;" x1="844.1257" x2="951.1828" y1="295.3047" y2="295.3047"/><ellipse cx="704.05" cy="431.1797" fill="#84BE84" rx="3" ry="3" style="stroke:#038048;stroke-width:1;"/><text fill="#000000" font-family="sans-serif" font-size="14" lengthAdjust="spacing" textLength="152.1611" x="713.05" y="434.5264">burn_in_angle() : void</text><ellipse cx="704.05" cy="447.4766" fill="#84BE84" rx="3" ry="3" style="stroke:#038048;stroke-width:1;"/><text fill="#000000" font-family="sans-serif" font-size="14" lengthAdjust="spacing" textLength="169.1484" x="713.05" y="450.8232">burn_in_settings() : void</text><line style="stroke:#181818;stroke-width:1;stroke-dasharray:1.0,2.0;" x1="694.05" x2="734.0534" y1="413.3828" y2="413.3828"/><text fill="#000000" font-family="sans-serif" font-size="14" lengthAdjust="spacing" textLength="177.126" x="734.0534" y="417.7295">permanent programming</text><line style="stroke:#181818;stroke-width:1;stroke-dasharray:1.0,2.0;" x1="911.1794" x2="951.1828" y1="413.3828" y2="413.3828"/></g><!--class PowerMode--><g id="elem_PowerMode"><rect codeLine="29" fill="#F1F1F1" height="113.1875" id="PowerMode" rx="2.5" ry="2.5" style="stroke:#181818;stroke-width:0.5;" width="219.2383" x="7" y="550.72"/><ellipse cx="71.8833" cy="566.72" fill="#EB937F" rx="11" ry="11" style="stroke:#181818;stroke-width:1;"/><path d="M75.9927,572.72 L68.2739,572.72 L68.2739,560.3294 L75.9927,560.3294 L75.9927,562.4856 L70.7271,562.4856 L70.7271,565.1575 L75.4927,565.1575 L75.4927,567.3138 L70.7271,567.3138 L70.7271,570.5638 L75.9927,570.5638 L75.9927,572.72 Z " fill="#000000"/><text fill="#000000" font-family="sans-serif" font-size="14" lengthAdjust="spacing" textLength="80.9717" x="92.3833" y="571.5667">PowerMode</text><line style="stroke:#181818;stroke-width:0.5;" x1="8" x2="225.2383" y1="582.72" y2="582.72"/><text fill="#000000" font-family="sans-serif" font-size="14" lengthAdjust="spacing" textLength="203.5811" x="13" y="599.7151">POWER_MODE_NOM : int = 0</text><text fill="#000000" font-family="sans-serif" font-size="14" lengthAdjust="spacing" textLength="207.2383" x="13" y="616.012">POWER_MODE_LPM1 : int = 1</text><text fill="#000000" font-family="sans-serif" font-size="14" lengthAdjust="spacing" textLength="207.2383" x="13" y="632.3089">POWER_MODE_LPM2 : int = 2</text><text fill="#000000" font-family="sans-serif" font-size="14" lengthAdjust="spacing" textLength="207.2383" x="13" y="648.6057">POWER_MODE_LPM3 : int = 3</text><line style="stroke:#181818;stroke-width:0.5;" x1="8" x2="225.2383" y1="655.9075" y2="655.9075"/></g><!--class Hysteresis--><g id="elem_Hysteresis"><rect codeLine="36" fill="#F1F1F1" height="113.1875" id="Hysteresis" rx="2.5" ry="2.5" style="stroke:#181818;stroke-width:0.5;" width="201.4443" x="260.9" y="550.72"/><ellipse cx="320.8443" cy="566.72" fill="#EB937F" rx="11" ry="11" style="stroke:#181818;stroke-width:1;"/><path d="M324.9537,572.72 L317.235,572.72 L317.235,560.3294 L324.9537,560.3294 L324.9537,562.4856 L319.6881,562.4856 L319.6881,565.1575 L324.4537,565.1575 L324.4537,567.3138 L319.6881,567.3138 L319.6881,570.5638 L324.9537,570.5638 L324.9537,572.72 Z " fill="#000000"/><text fill="#000000" font-family="sans-serif" font-size="14" lengthAdjust="spacing" textLength="73.0557" x="341.3443" y="571.5667">Hysteresis</text><line style="stroke:#181818;stroke-width:0.5;" x1="261.9" x2="461.3443" y1="582.72" y2="582.72"/><text fill="#000000" font-family="sans-serif" font-size="14" lengthAdjust="spacing" textLength="181.3711" x="266.9" y="599.7151">HYSTERESIS_OFF : int = 0</text><text fill="#000000" font-family="sans-serif" font-size="14" lengthAdjust="spacing" textLength="189.4443" x="266.9" y="616.012">HYSTERESIS_1LSB : int = 1</text><text fill="#000000" font-family="sans-serif" font-size="14" lengthAdjust="spacing" textLength="189.4443" x="266.9" y="632.3089">HYSTERESIS_2LSB : int = 2</text><text fill="#000000" font-family="sans-serif" font-size="14" lengthAdjust="spacing" textLength="189.4443" x="266.9" y="648.6057">HYSTERESIS_3LSB : int = 3</text><line style="stroke:#181818;stroke-width:0.5;" x1="261.9" x2="461.3443" y1="655.9075" y2="655.9075"/></g><!--class OutputStage--><g id="elem_OutputStage"><rect codeLine="43" fill="#F1F1F1" height="96.8906" id="OutputStage" rx="2.5" ry="2.5" style="stroke:#181818;stroke-width:0.5;" width="326.4736" x="497.38" y="558.87"/><ellipse cx="611.8238" cy="574.87" fill="#EB937F" rx="11" ry="11" style="stroke:#181818;stroke-width:1;"/><path d="M615.9332,580.87 L608.2145,580.87 L608.2145,568.4794 L615.9332,568.4794 L615.9332,570.6356 L610.6676,570.6356 L610.6676,573.3075 L615.4332,573.3075 L615.4332,575.4638 L610.6676,575.4638 L610.6676,578.7138 L615.9332,578.7138 L615.9332,580.87 Z " fill="#000000"/><text fill="#000000" font-family="sans-serif" font-size="14" lengthAdjust="spacing" textLength="89.0859" x="632.3238" y="579.7167">OutputStage</text><line style="stroke:#181818;stroke-width:0.5;" x1="498.38" x2="822.8536" y1="590.87" y2="590.87"/><text fill="#000000" font-family="sans-serif" font-size="14" lengthAdjust="spacing" textLength="279.3711" x="503.38" y="607.8651">OUTPUT_STAGE_ANALOG_FULL : int = 0</text><text fill="#000000" font-family="sans-serif" font-size="14" lengthAdjust="spacing" textLength="314.4736" x="503.38" y="624.162">OUTPUT_STAGE_ANALOG_REDUCED : int = 1</text><text fill="#000000" font-family="sans-serif" font-size="14" lengthAdjust="spacing" textLength="276.3564" x="503.38" y="640.4589">OUTPUT_STAGE_DIGITAL_PWM : int = 2</text><line style="stroke:#181818;stroke-width:0.5;" x1="498.38" x2="822.8536" y1="647.7606" y2="647.7606"/></g><!--class PWMFrequency--><g id="elem_PWMFrequency"><rect codeLine="49" fill="#F1F1F1" height="113.1875" id="PWMFrequency" rx="2.5" ry="2.5" style="stroke:#181818;stroke-width:0.5;" width="254.1494" x="858.54" y="550.72"/><ellipse cx="927.3574" cy="566.72" fill="#EB937F" rx="11" ry="11" style="stroke:#181818;stroke-width:1;"/><path d="M931.4668,572.72 L923.748,572.72 L923.748,560.3294 L931.4668,560.3294 L931.4668,562.4856 L926.2011,562.4856 L926.2011,565.1575 L930.9668,565.1575 L930.9668,567.3138 L926.2011,567.3138 L926.2011,570.5638 L931.4668,570.5638 L931.4668,572.72 Z " fill="#000000"/><text fill="#000000" font-family="sans-serif" font-size="14" lengthAdjust="spacing" textLength="108.0146" x="947.8574" y="571.5667">PWMFrequency</text><line style="stroke:#181818;stroke-width:0.5;" x1="859.54" x2="1111.6894" y1="582.72" y2="582.72"/><text fill="#000000" font-family="sans-serif" font-size="14" lengthAdjust="spacing" textLength="242.1494" x="864.54" y="599.7151">PWM_FREQUENCY_115HZ : int = 0</text><text fill="#000000" font-family="sans-serif" font-size="14" lengthAdjust="spacing" textLength="242.1494" x="864.54" y="616.012">PWM_FREQUENCY_230HZ : int = 1</text><text fill="#000000" font-family="sans-serif" font-size="14" lengthAdjust="spacing" textLength="242.1494" x="864.54" y="632.3089">PWM_FREQUENCY_460HZ : int = 2</text><text fill="#000000" font-family="sans-serif" font-size="14" lengthAdjust="spacing" textLength="242.1494" x="864.54" y="648.6057">PWM_FREQUENCY_920HZ : int = 3</text><line style="stroke:#181818;stroke-width:0.5;" x1="859.54" x2="1111.6894" y1="655.9075" y2="655.9075"/></g><!--class SlowFilter--><g id="elem_SlowFilter"><rect codeLine="56" fill="#F1F1F1" height="113.1875" id="SlowFilter" rx="2.5" ry="2.5" style="stroke:#181818;stroke-width:0.5;" width="203.4678" x="1147.89" y="550.72"/><ellipse cx="1211.1327" cy="566.72" fill="#EB937F" rx="11" ry="11" style="stroke:#181818;stroke-width:1;"/><path d="M1215.2421,572.72 L1207.5233,572.72 L1207.5233,560.3294 L1215.2421,560.3294 L1215.2421,562.4856 L1209.9764,562.4856 L1209.9764,565.1575 L1214.7421,565.1575 L1214.7421,567.3138 L1209.9764,567.3138 L1209.9764,570.5638 L1215.2421,570.5638 L1215.2421,572.72 Z " fill="#000000"/><text fill="#000000" font-family="sans-serif" font-size="14" lengthAdjust="spacing" textLength="68.4824" x="1231.6327" y="571.5667">SlowFilter</text><line style="stroke:#181818;stroke-width:0.5;" x1="1148.89" x2="1350.3578" y1="582.72" y2="582.72"/><text fill="#000000" font-family="sans-serif" font-size="14" lengthAdjust="spacing" textLength="191.4678" x="1153.89" y="599.7151">SLOW_FILTER_16X : int = 0</text><text fill="#000000" font-family="sans-serif" font-size="14" lengthAdjust="spacing" textLength="182.5605" x="1153.89" y="616.012">SLOW_FILTER_8X : int = 1</text><text fill="#000000" font-family="sans-serif" font-size="14" lengthAdjust="spacing" textLength="182.5605" x="1153.89" y="632.3089">SLOW_FILTER_4X : int = 2</text><text fill="#000000" font-family="sans-serif" font-size="14" lengthAdjust="spacing" textLength="182.5605" x="1153.89" y="648.6057">SLOW_FILTER_2X : int = 3</text><line style="stroke:#181818;stroke-width:0.5;" x1="1148.89" x2="1350.3578" y1="655.9075" y2="655.9075"/></g><!--class FastFilterThreshold--><g id="elem_FastFilterThreshold"><rect codeLine="63" fill="#F1F1F1" height="178.375" id="FastFilterThreshold" rx="2.5" ry="2.5" style="stroke:#181818;stroke-width:0.5;" width="307.3535" x="1385.94" y="518.12"/><ellipse cx="1468.1627" cy="534.12" fill="#EB937F" rx="11" ry="11" style="stroke:#181818;stroke-width:1;"/><path d="M1472.272,540.12 L1464.5533,540.12 L1464.5533,527.7294 L1472.272,527.7294 L1472.272,529.8856 L1467.0064,529.8856 L1467.0064,532.5575 L1471.772,532.5575 L1471.772,534.7138 L1467.0064,534.7138 L1467.0064,537.9638 L1472.272,537.9638 L1472.272,540.12 Z " fill="#000000"/><text fill="#000000" font-family="sans-serif" font-size="14" lengthAdjust="spacing" textLength="134.4082" x="1488.6627" y="538.9667">FastFilterThreshold</text><line style="stroke:#181818;stroke-width:0.5;" x1="1386.94" x2="1692.2935" y1="550.12" y2="550.12"/><text fill="#000000" font-family="sans-serif" font-size="14" lengthAdjust="spacing" textLength="292.7969" x="1391.94" y="567.1151">FAST_FILTER_THRESHOLD_SLOW : int = 0</text><text fill="#000000" font-family="sans-serif" font-size="14" lengthAdjust="spacing" textLength="286.4463" x="1391.94" y="583.412">FAST_FILTER_THRESHOLD_6LSB : int = 1</text><text fill="#000000" font-family="sans-serif" font-size="14" lengthAdjust="spacing" textLength="286.4463" x="1391.94" y="599.7089">FAST_FILTER_THRESHOLD_7LSB : int = 2</text><text fill="#000000" font-family="sans-serif" font-size="14" lengthAdjust="spacing" textLength="286.4463" x="1391.94" y="616.0057">FAST_FILTER_THRESHOLD_9LSB : int = 3</text><text fill="#000000" font-family="sans-serif" font-size="14" lengthAdjust="spacing" textLength="295.3535" x="1391.94" y="632.3026">FAST_FILTER_THRESHOLD_18LSB : int = 4</text><text fill="#000000" font-family="sans-serif" font-size="14" lengthAdjust="spacing" textLength="295.3535" x="1391.94" y="648.5995">FAST_FILTER_THRESHOLD_21LSB : int = 5</text><text fill="#000000" font-family="sans-serif" font-size="14" lengthAdjust="spacing" textLength="295.3535" x="1391.94" y="664.8964">FAST_FILTER_THRESHOLD_24LSB : int = 6</text><text fill="#000000" font-family="sans-serif" font-size="14" lengthAdjust="spacing" textLength="295.3535" x="1391.94" y="681.1932">FAST_FILTER_THRESHOLD_10LSB : int = 7</text><line style="stroke:#181818;stroke-width:0.5;" x1="1386.94" x2="1692.2935" y1="688.495" y2="688.495"/></g><!--link AS5600 to PowerMode--><g id="link_AS5600_PowerMode"><path codeLine="74" d="M692.65,290.64 C573.36,344.61 393,430.22 243.62,518.12 C226.96,527.93 209.63,539.19 193.32,550.32 " fill="#FFFFFF" fill-opacity="0.00000" id="AS5600-PowerMode" style="stroke:#181818;stroke-width:1;"/></g><!--link AS5600 to Hysteresis--><g id="link_AS5600_Hysteresis"><path codeLine="75" d="M692.67,338.63 C607.59,407.43 499.78,494.6 430.74,550.42 " fill="#FFFFFF" fill-opacity="0.00000" id="AS5600-Hysteresis" style="stroke:#181818;stroke-width:1;"/></g><!--link AS5600 to OutputStage--><g id="link_AS5600_OutputStage"><path codeLine="76" d="M724.88,458.46 C708.44,496.28 692.96,531.89 681.32,558.68 " fill="#FFFFFF" fill-opacity="0.00000" id="AS5600-OutputStage" style="stroke:#181818;stroke-width:1;"/></g><!--link AS5600 to PWMFrequency--><g id="link_AS5600_PWMFrequency"><path codeLine="77" d="M920.96,458.46 C935.82,492.44 949.9,524.63 961.1,550.25 " fill="#FFFFFF" fill-opacity="0.00000" id="AS5600-PWMFrequency" style="stroke:#181818;stroke-width:1;"/></g><!--link AS5600 to SlowFilter--><g id="link_AS5600_SlowFilter"><path codeLine="78" d="M952.47,346.92 C1029.64,414.28 1124.12,496.76 1185.53,550.37 " fill="#FFFFFF" fill-opacity="0.00000" id="AS5600-SlowFilter" style="stroke:#181818;stroke-width:1;"/></g><!--link AS5600 to FastFilterThreshold--><g id="link_AS5600_FastFilterThreshold"><path codeLine="79" d="M952.46,301.06 C1074.23,364.37 1256.42,459.08 1385.5,526.19 " fill="#FFFFFF" fill-opacity="0.00000" id="AS5600-FastFilterThreshold" style="stroke:#181818;stroke-width:1;"/></g><!--SRC=[XPLDSzem48Rl-HK-9jE6mOQGZvaUADZ0Z8afDWFfHQFOmcXgIzIMIvDC_dlb6ED5A9GJg_VHwfLsPOK9pdEZxz_qsctZxSAGlozrU4cjq7Wm9jRWgu6ZA2EIV30e4rSVNAkrnz_Mb2JHku5Pd92AK9GCxv2gjbf6oDcQngU9Nad6qPRdL53EgYc6WgJuhq9e0B2aEd_BToH3AOzAVLO6K_bVWJOlkI1osxJSz_WGA1GlnBOGA1SuBfDv7w7_4QcBxbAqpiZlWh3mfLntENNgK47pXE_GcYPoIGdwCdAgGE7ME1SDvyYeueADjBhXIQJmEop23OfuBEbdpfDQg4iYTo6A_BGaD4SfZXaHI70kzvfnLgSuI-u8_lK_BYA2X894UYx6jEu1w1LMEcPK596-zLxJa6kcowrkIPPYHgImpNYSuJIb33PZIiI6ompFHSOGPLKtNLx9P7yuZJwZSYA4p9CtuFl51M55sdJP_fxDlAKzHrDlQAD7Rxht-Cregw8xcve7rTIera6rD6hde7OELffUtdiPF_c1FRVzYOyynr6y0D5q_U-A5w1QKBLKjGFLnWkyBvKPRn7C5W7oW_x8Hlt7lkkDaBDmNSMM3flRmyN07YeMZyZXP3G9-YwIbmzuFHG9NCcwJiifSkRsZuNzE7X2fdap_gaMwuYmEcr0c1gYsuE4fI7kBKWqXmK-19Kvt_MMo9cuyf2HsLifng1wjr8yGR6xKkn0qLffd6W-DNjBJjyFwgd1MDP-xBb3L2PKtEd1tccBwS7RqsxJW_V7ZVSvQDv1idk6j8ukmiqviWl9thdLsv2yBKzw_n1VNuCdgXa3Br8p2AuJd0vVccQuQISmgAdiFm00]--></g></svg>
